<svg width="48" height="48" viewBox="0 0 48 48" fill="none" xmlns="http://www.w3.org/2000/svg">
<path d="M31.6562 13.0012C31.38 13.0322 31.1252 13.1677 30.9421 13.3809C30.7589 13.5941 30.6606 13.8696 30.6666 14.1531V16.1732C28.8957 14.558 26.5552 13.586 23.9999 13.586C18.4901 13.586 14 18.1691 14 23.793C14 29.4174 18.4902 34 23.9999 34C29.5097 34 33.9999 29.4174 33.9999 23.793C34.002 23.6427 33.9748 23.4935 33.9199 23.3541C33.865 23.2146 33.7834 23.0877 33.6801 22.9806C33.5767 22.8736 33.4535 22.7886 33.3177 22.7306C33.1818 22.6726 33.036 22.6427 32.8888 22.6427C32.7415 22.6427 32.5958 22.6726 32.4599 22.7306C32.3241 22.7886 32.2009 22.8736 32.0975 22.9806C31.9941 23.0877 31.9126 23.2146 31.8577 23.3541C31.8028 23.4935 31.7756 23.6427 31.7777 23.793C31.7777 28.1919 28.309 31.7318 23.9999 31.7318C19.6909 31.7318 16.2222 28.1919 16.2222 23.793C16.2222 19.3948 19.6909 15.8542 23.9999 15.8542C26.12 15.8542 28.0315 16.7251 29.4339 18.1225H26.7777C26.6305 18.1203 26.4843 18.1481 26.3477 18.2041C26.211 18.2602 26.0867 18.3434 25.9818 18.4489C25.877 18.5544 25.7937 18.6802 25.7369 18.8188C25.68 18.9575 25.6508 19.1063 25.6508 19.2566C25.6508 19.4069 25.68 19.5557 25.7369 19.6943C25.7937 19.833 25.877 19.9587 25.9818 20.0642C26.0867 20.1698 26.211 20.253 26.3477 20.309C26.4843 20.365 26.6305 20.3928 26.7777 20.3907H31.7777H32.8888V19.2566V14.1531C32.8911 14.0012 32.8635 13.8503 32.8076 13.7095C32.7517 13.5687 32.6687 13.4407 32.5635 13.3333C32.4582 13.2259 32.3329 13.1411 32.1949 13.0841C32.0569 13.027 31.9092 12.9989 31.7603 13.0012C31.7256 12.9996 31.6909 12.9996 31.6562 13.0012Z" fill="white"/>
</svg>
